<?xml version="1.0" encoding="utf-8"?>
<!-- Generator: Adobe Illustrator 19.0.0, SVG Export Plug-In . SVG Version: 6.00 Build 0)  -->
<svg version="1.1" id="Layer_1" xmlns="http://www.w3.org/2000/svg" xmlns:xlink="http://www.w3.org/1999/xlink" x="0px" y="0px"
	 viewBox="0 0 500 500" style="enable-background:new 0 0 500 500;" xml:space="preserve">
<style type="text/css">
	.st0{fill:#77C159;}
</style>
<g transform="translate(-179.26877,-381.87377)">
	<g transform="matrix(2.3177689,0,0,2.3177689,-52.089615,-823.26339)">
		<path class="st0" d="M127.9,632.1c0-1.9,0.2-3.5,0.9-5.1s1.5-3,2.6-4.1c1.1-1.1,2.3-2.1,4-2.7c1.5-0.6,3.2-1,4.9-1
			c1.4,0,2.6,0.2,3.7,0.6c1.1,0.4,2.2,1.1,3.2,2v-2.1h6.2v24.7h-6.2v-2.1c-1,0.9-2.1,1.6-3.2,2c-1.1,0.4-2.3,0.6-3.7,0.6
			c-1.9,0-3.5-0.4-4.9-1c-1.5-0.6-2.8-1.6-4-2.7c-1.1-1.1-2-2.5-2.6-4.1C128.1,635.5,127.9,633.9,127.9,632.1z M141,639.1
			c0.5,0,1,0,1.5-0.1s1.1-0.2,1.6-0.5c0.5-0.2,1.1-0.6,1.6-1c0.5-0.4,1-1,1.5-1.5v-7.7c-0.5-0.6-1-1.1-1.5-1.5c-0.5-0.4-1-0.7-1.6-1
			c-0.5-0.2-1.1-0.5-1.6-0.5c-0.5-0.1-1-0.1-1.5-0.1c-1,0-1.9,0.1-2.7,0.5c-0.9,0.4-1.6,0.9-2.1,1.5c-0.6,0.6-1.1,1.4-1.5,2.2
			c-0.4,0.9-0.5,1.9-0.5,2.8s0.1,2,0.5,2.8s0.9,1.6,1.5,2.2c0.6,0.6,1.4,1.1,2.1,1.5c0.9,0.4,1.7,0.5,2.7,0.5V639.1z M168.7,625.3
			c-3,0-5.4,2.1-5.4,5.1v14.1H157v-13.8c0-5.8,5.1-11.3,11.5-11.4h0.1c6.4,0.1,11.5,5.6,11.5,11.4v13.8H174v-14.1
			c0-3-2.5-5.1-5.4-5.1 M183.1,632.1c0-1.9,0.2-3.5,0.9-5.1c0.6-1.6,1.5-3,2.6-4.1c1.1-1.1,2.3-2.1,4-2.7c1.5-0.6,3.2-1,4.9-1
			c1.4,0,2.6,0.2,3.7,0.6c1.1,0.4,2.2,1.1,3.2,2v-9.5h6.2v32.1h-6.2v-2.1c-1,0.9-2.1,1.6-3.2,2c-1.1,0.4-2.3,0.6-3.7,0.6
			c-1.9,0-3.5-0.4-4.9-1c-1.5-0.6-2.8-1.6-4-2.7c-1.1-1.1-2-2.5-2.6-4.1C183.4,635.5,183.1,633.9,183.1,632.1z M196.2,639.1
			c0.5,0,1,0,1.5-0.1s1.1-0.2,1.6-0.5c0.5-0.2,1.1-0.6,1.6-1c0.5-0.4,1-1,1.5-1.5v-7.7c-0.5-0.6-1-1.1-1.5-1.5c-0.5-0.4-1-0.7-1.6-1
			c-0.5-0.2-1.1-0.5-1.6-0.5c-0.5-0.1-1-0.1-1.5-0.1c-1,0-1.9,0.1-2.7,0.5c-0.9,0.4-1.6,0.9-2.1,1.5c-0.6,0.6-1.1,1.4-1.5,2.2
			c-0.4,0.9-0.5,1.9-0.5,2.8s0.1,2,0.5,2.8c0.4,0.9,0.9,1.6,1.5,2.2c0.6,0.6,1.4,1.1,2.1,1.5c0.9,0.4,1.7,0.5,2.7,0.5V639.1z
			 M237.3,639.1c0.9,0,1.7-0.1,2.6-0.5c0.9-0.4,1.5-0.9,2.1-1.5c0.6-0.6,1.1-1.4,1.5-2.2c0.4-0.9,0.5-1.9,0.5-2.8s-0.1-2-0.5-2.8
			c-0.4-0.9-0.9-1.6-1.5-2.2s-1.4-1.1-2.1-1.5c-0.9-0.4-1.6-0.5-2.6-0.5c-0.9,0-1.7,0.1-2.6,0.5c-0.9,0.4-1.5,0.9-2.1,1.5
			s-1.1,1.4-1.5,2.2c-0.4,0.9-0.5,1.9-0.5,2.8s0.1,2,0.5,2.8c0.4,0.9,0.9,1.6,1.5,2.2c0.6,0.6,1.4,1.1,2.1,1.5
			C235.6,639,236.4,639.1,237.3,639.1z M237.3,644.9c-1.7,0-3.5-0.4-5.1-1c-1.6-0.6-3-1.5-4.1-2.7c-1.2-1.1-2.1-2.5-2.8-4.1
			c-0.7-1.6-1-3.2-1-5.1c0-1.7,0.4-3.5,1-5.1c0.7-1.6,1.6-3,2.8-4.1c1.2-1.1,2.6-2.1,4.1-2.7c1.6-0.6,3.2-1,5.1-1
			c1.7,0,3.5,0.4,5.1,1c1.6,0.6,3,1.6,4.1,2.7c1.2,1.1,2.1,2.5,2.8,4.1c0.7,1.6,1,3.2,1,5.1s-0.4,3.6-1,5.1c-0.7,1.6-1.6,3-2.8,4.1
			c-1.2,1.1-2.6,2.1-4.1,2.7C240.8,644.6,239.2,644.9,237.3,644.9z M256.1,617.7c-0.5,0-1-0.1-1.4-0.2c-0.5-0.2-0.9-0.5-1.1-0.7
			c-0.4-0.4-0.6-0.7-0.7-1.1c-0.2-0.5-0.2-0.9-0.2-1.4c0-0.5,0.1-1,0.2-1.4c0.2-0.5,0.5-0.9,0.7-1.2c0.4-0.4,0.7-0.6,1.1-0.7
			c0.5-0.2,0.9-0.2,1.4-0.2c0.5,0,1,0.1,1.4,0.2c0.5,0.2,0.9,0.5,1.2,0.7c0.4,0.4,0.6,0.7,0.7,1.2c0.2,0.5,0.2,0.9,0.2,1.4
			c0,0.5-0.1,1-0.2,1.4c-0.2,0.5-0.5,0.9-0.7,1.1c-0.4,0.4-0.7,0.6-1.2,0.7C257,617.7,256.6,617.7,256.1,617.7z M253,619.7h6.2v24.7
			H253V619.7z M262,632.1c0-1.9,0.2-3.5,0.9-5.1c0.6-1.6,1.5-3,2.6-4.1c1.1-1.1,2.3-2.1,4-2.7c1.5-0.6,3.2-1,4.9-1
			c1.4,0,2.6,0.2,3.7,0.6c1.1,0.4,2.2,1.1,3.2,2v-9.5h6.2v32.1h-6.2v-2.1c-1,0.9-2.1,1.6-3.2,2c-1.1,0.4-2.3,0.6-3.7,0.6
			c-1.9,0-3.5-0.4-4.9-1c-1.5-0.6-2.8-1.6-4-2.7s-2-2.5-2.6-4.1C262.3,635.5,262,633.9,262,632.1z M275.1,639.1c0.5,0,1,0,1.5-0.1
			c0.5-0.1,1.1-0.2,1.6-0.5c0.5-0.2,1.1-0.6,1.6-1c0.5-0.4,1-1,1.5-1.5v-7.7c-0.5-0.6-1-1.1-1.5-1.5c-0.5-0.4-1-0.7-1.6-1
			c-0.5-0.2-1.1-0.5-1.6-0.5c-0.5-0.1-1-0.1-1.5-0.1c-1,0-1.9,0.1-2.7,0.5s-1.6,0.9-2.1,1.5c-0.6,0.6-1.1,1.4-1.5,2.2
			c-0.4,0.9-0.5,1.9-0.5,2.8s0.1,2,0.5,2.8c0.4,0.9,0.9,1.6,1.5,2.2c0.6,0.6,1.4,1.1,2.1,1.5c0.9,0.4,1.7,0.5,2.7,0.5V639.1z
			 M223.7,625.3c-4.1,0-5.9,2.1-5.9,5.1v14.1h-6.2v-13.8c0-5.8,3.3-11.5,12.1-11.5"/>
	</g>
</g>
</svg>
