<?xml version="1.0" encoding="utf-8"?>
<!-- Generator: Adobe Illustrator 24.1.1, SVG Export Plug-In . SVG Version: 6.00 Build 0)  -->
<svg version="1.1" id="Layer_1" xmlns="http://www.w3.org/2000/svg" xmlns:xlink="http://www.w3.org/1999/xlink" x="0px" y="0px"
	 viewBox="0 0 512 512" style="enable-background:new 0 0 512 512;" xml:space="preserve">
<style type="text/css">
	.st0{fill:#326DE6;}
	.st1{fill:#FFFFFF;}
</style>
<g>
	<path class="st0" d="M163.5,497.3c-11.9,0-23.2-5.3-30.8-14.9l-115.9-144c-7.6-9.6-10.6-21.8-7.6-33.8l41.4-179.8
		c2.6-11.9,10.6-21.5,21.5-26.8L239.6,18c5.3-2.6,11.3-4,17.2-4c6,0,11.9,1.3,17.2,4l167.5,79.8c10.9,5.3,18.9,14.9,21.5,26.8
		l41.4,179.8c2.6,11.9,0,24.2-7.6,33.8L381,482.1c-7.6,9.3-18.9,14.9-30.8,14.9L163.5,497.3z"/>
	<path class="st1" d="M256.5,22.3c4.6,0,9.3,1,13.6,3L437.6,105c8.6,4.3,15.2,12.2,17.2,21.5l41.4,179.8c2.3,9.6,0,19.5-6.3,27.1
		L374,477.5c-6,7.6-15.2,11.9-24.8,11.9H163.5c-9.6,0-18.9-4.3-24.8-11.9l-115.9-144c-6-7.6-8.3-17.5-6.3-27.1l41.4-179.8
		c2.3-9.6,8.6-17.5,17.2-21.5l167.5-80.1C246.9,23.3,251.9,22.3,256.5,22.3z M256.5,6.7L256.5,6.7c-7,0-13.9,1.7-20.5,4.6L68.5,91.5
		c-13.2,6.3-22.5,17.9-25.8,32.1L1.3,303.3c-3.3,14.2,0,28.8,9.3,40.4l115.9,144c8.9,11.3,22.5,17.5,36.7,17.5h185.7
		c14.2,0,27.8-6.3,36.7-17.5l115.9-144c9.3-11.3,12.6-26.2,9.3-40.4l-41.4-179.8c-3.3-14.2-12.6-25.8-25.8-32.1L276.7,11.3
		C270.4,8.4,263.4,6.7,256.5,6.7z"/>
	<path class="st1" d="M424.3,292.1L424.3,292.1C424,292.1,424,292.1,424.3,292.1H424c-0.3,0-0.7,0-0.7-0.3c-0.7,0-1.3-0.3-2-0.3
		c-2.3-0.3-4.3-0.7-6.3-0.7c-1,0-2,0-3.3-0.3h-0.3c-7-0.7-12.6-1.3-17.9-3c-2.3-1-3-2.3-3.6-3.6c0-0.3-0.3-0.3-0.3-0.7l-4.3-1.3
		c2-15.2,1.3-31.1-2.3-46.7c-3.6-15.6-9.9-30.1-18.5-43.4l3.3-3v-0.7c0-1.7,0.3-3.3,1.7-5c4-3.6,8.9-6.6,14.9-10.3c1-0.7,2-1,3-1.7
		c2-1,3.6-2,5.6-3.3c0.3-0.3,1-0.7,1.7-1.3c0.3-0.3,0.7-0.3,0.7-0.7c4.6-4,5.6-10.6,2.3-14.9c-1.7-2.3-4.6-3.6-7.6-3.6
		c-2.6,0-5,1-7.3,2.6c-0.3,0.3-0.3,0.3-0.7,0.7c-0.7,0.3-1,1-1.7,1.3c-1.7,1.7-3,3-4.3,4.6c-0.7,0.7-1.3,1.7-2.3,2.3
		c-4.6,5-8.9,8.9-13.2,11.9c-1,0.7-2,1-3,1c-0.7,0-1.3,0-2-0.3h-0.7l-4,2.6c-4.3-4.6-8.9-8.6-13.6-12.6
		c-19.9-15.6-44-25.2-69.2-27.5l-0.3-4.3c-0.3-0.3-0.3-0.3-0.7-0.7c-1-1-2.3-2-2.6-4.3c-0.3-5.3,0.3-11.3,1-17.9v-0.3
		c0-1,0.3-2.3,0.7-3.3c0.3-2,0.7-4,1-6.3v-2v-1c0-6-4.6-10.9-10.3-10.9c-2.6,0-5.3,1.3-7.3,3.3c-2,2-3,4.6-3,7.6v0.7v2
		c0,2.3,0.3,4.3,1,6.3c0.3,1,0.3,2,0.7,3.3v0.3c0.7,6.6,1.7,12.6,1,17.9c-0.3,2.3-1.7,3.3-2.6,4.3c-0.3,0.3-0.3,0.3-0.7,0.7
		l-0.3,4.3c-6,0.7-11.9,1.3-17.9,2.6c-25.5,5.6-48,18.5-65.5,37.1l-3.3-2.3h-0.7c-0.7,0-1.3,0.3-2,0.3c-1,0-2-0.3-3-1
		c-4.3-3-8.6-7.3-13.2-12.2c-0.7-0.7-1.3-1.7-2.3-2.3c-1.3-1.7-2.6-3-4.3-4.6c-0.3-0.3-1-0.7-1.7-1.3c-0.3-0.3-0.7-0.3-0.7-0.7
		c-2-1.7-4.6-2.6-7.3-2.6c-3,0-6,1.3-7.6,3.6c-3.3,4.3-2.3,10.9,2.3,14.9c0.3,0,0.3,0.3,0.7,0.3c0.7,0.3,1,1,1.7,1.3
		c2,1.3,3.6,2.3,5.6,3.3c1,0.3,2,1,3,1.7c6,3.6,10.9,6.6,14.9,10.3c1.7,1.7,1.7,3.3,1.7,5v0.7l3.3,3c-0.7,1-1.3,1.7-1.7,2.6
		c-16.6,26.2-22.8,56.9-18.5,87.4l-4.3,1.3c0,0.3-0.3,0.3-0.3,0.7c-0.7,1.3-1.7,2.6-3.6,3.6c-5,1.7-10.9,2.3-17.9,3h-0.3
		c-1,0-2.3,0-3.3,0.3c-2,0-4,0.3-6.3,0.7c-0.7,0-1.3,0.3-2,0.3c-0.3,0-0.7,0-1,0.3c-6,1.3-9.6,7-8.6,12.2c1,4.6,5.3,7.6,10.6,7.6
		c1,0,1.7,0,2.6-0.3c0.3,0,0.7,0,0.7-0.3c0.7,0,1.3-0.3,2-0.3c2.3-0.7,4-1.3,6-2.3c1-0.3,2-1,3-1.3h0.3c6.3-2.3,11.9-4.3,17.2-5h0.7
		c2,0,3.3,1,4.3,1.7c0.3,0,0.3,0.3,0.7,0.3l4.6-0.7c7.9,24.5,23.2,46.3,43.4,62.2c4.6,3.6,9.3,6.6,14.2,9.6l-2,4.3
		c0,0.3,0.3,0.3,0.3,0.7c0.7,1.3,1.3,3,0.7,5.3c-2,5-5,9.9-8.6,15.6v0.3c-0.7,1-1.3,1.7-2,2.6c-1.3,1.7-2.3,3.3-3.6,5.3
		c-0.3,0.3-0.7,1-1,1.7c0,0.3-0.3,0.7-0.3,0.7c-2.6,5.6-0.7,11.9,4.3,14.2c1.3,0.7,2.6,1,4,1c4,0,7.9-2.6,9.9-6.3
		c0-0.3,0.3-0.7,0.3-0.7c0.3-0.7,0.7-1.3,1-1.7c1-2.3,1.3-4,2-6c0.3-1,0.7-2,1-3c2.3-6.6,4-11.9,7-16.6c1.3-2,3-2.3,4.3-3
		c0.3,0,0.3,0,0.7-0.3l2.3-4.3c14.6,5.6,30.5,8.6,46.3,8.6c9.6,0,19.5-1,28.8-3.3c6-1.3,11.6-3,17.2-5l2,3.6c0.3,0,0.3,0,0.7,0.3
		c1.7,0.3,3,1,4.3,3c2.6,4.6,4.6,10.3,7,16.6v0.3c0.3,1,0.7,2,1,3c0.7,2,1,4,2,6c0.3,0.7,0.7,1,1,1.7c0,0.3,0.3,0.7,0.3,0.7
		c2,4,6,6.3,9.9,6.3c1.3,0,2.6-0.3,4-1c2.3-1.3,4.3-3.3,5-6c0.7-2.6,0.7-5.6-0.7-8.3c0-0.3-0.3-0.3-0.3-0.7c-0.3-0.7-0.7-1.3-1-1.7
		c-1-2-2.3-3.6-3.6-5.3c-0.7-1-1.3-1.7-2-2.6v-0.3c-3.6-5.6-7-10.6-8.6-15.6c-0.7-2.3,0-3.6,0.3-5.3c0-0.3,0.3-0.3,0.3-0.7l-1.7-4
		c17.5-10.3,32.4-24.8,43.7-42.7c6-9.3,10.6-19.5,13.9-29.8l4,0.7c0.3,0,0.3-0.3,0.7-0.3c1.3-0.7,2.3-1.7,4.3-1.7h0.7
		c5.3,0.7,10.9,2.6,17.2,5h0.3c1,0.3,2,1,3,1.3c2,1,3.6,1.7,6,2.3c0.7,0,1.3,0.3,2,0.3c0.3,0,0.7,0,1,0.3c1,0.3,1.7,0.3,2.6,0.3
		c5,0,9.3-3.3,10.6-7.6C433.9,299,430.3,293.7,424.3,292.1z M271.1,275.9l-14.6,7l-14.6-7l-3.6-15.6l9.9-12.6h16.2l9.9,12.6
		L271.1,275.9z M357.5,241.4c2.6,11.3,3.3,22.5,2.3,33.4l-50.7-14.6c-4.6-1.3-7.3-6-6.3-10.6c0.3-1.3,1-2.6,2-3.6l40.1-36.1
		C350.5,219.3,354.8,229.8,357.5,241.4z M329,190.1l-43.4,30.8c-3.6,2.3-8.6,1.7-11.6-2c-1-1-1.3-2.3-1.7-3.6l-3-54
		C292.3,164,313.1,174.2,329,190.1z M233,163c3.6-0.7,7-1.3,10.6-2l-3,53c-0.3,4.6-4,8.6-8.9,8.6c-1.3,0-3-0.3-4-1l-44-31.5
		C197.2,176.5,214.1,167.3,233,163z M167.8,210l39.4,35.1c3.6,3,4,8.6,1,12.2c-1,1.3-2.3,2.3-4,2.6l-51.3,14.9
		C150.9,252.4,155.9,229.5,167.8,210z M158.8,299.7l52.6-8.9c4.3-0.3,8.3,2.6,9.3,7c0.3,2,0.3,3.6-0.3,5.3l-20.2,48.7
		C181.7,339.8,166.8,321.5,158.8,299.7z M279.7,365.6c-7.6,1.7-15.2,2.6-23.2,2.6c-11.6,0-22.8-2-33.4-5.3l26.2-47.3
		c2.6-3,7-4.3,10.6-2.3c1.7,1,3,2.3,4,3.6l25.5,46C286.3,363.9,283,364.6,279.7,365.6z M344.2,319.6c-8.3,13.2-19.2,23.8-31.8,32.1
		l-20.9-50c-1-4,0.7-8.3,4.6-10.3c1.3-0.7,3-1,4.6-1l53,8.9C351.8,306.7,348.5,313.3,344.2,319.6z"/>
</g>
</svg>
