<?xml version="1.0" encoding="utf-8"?>
<!-- Generator: Adobe Illustrator 19.0.0, SVG Export Plug-In . SVG Version: 6.00 Build 0)  -->
<svg version="1.1" id="Layer_1" xmlns="http://www.w3.org/2000/svg" xmlns:xlink="http://www.w3.org/1999/xlink" x="0px" y="0px"
	 viewBox="0 0 500 500" style="enable-background:new 0 0 500 500;" xml:space="preserve">
<style type="text/css">
	.st0{fill:#3A3C5B;}
	.st1{fill:#FFFFFF;}
</style>
<g id="XMLID_1_">
	<path id="XMLID_3_" class="st0" d="M432.5,250c0,100.8-81.7,182.5-182.5,182.5c-100.8,0-182.5-81.7-182.5-182.5
		c0-100.8,81.7-182.5,182.5-182.5C350.8,67.5,432.5,149.2,432.5,250"/>
	<path id="XMLID_6_" class="st1" d="M377.1,263.5c-6.1-38.8-46.9-63.9-77.2-82.9c-13.2-8.3-34.7-19.1-37.5-36.5
		c-1.1-7.2-1.1-14.6-1.3-21.9c-0.1-2.9-0.1-5.7-0.4-8.6c-0.3-3.7-4.1,0.9-6.1-2.4c-5.1-7.9-3.1,2.4-2.6,6.6
		c1.2,9.8,2.6,19.6,2.5,29.5c-0.2,18.9-3.2,37-7.9,55.3c-11.1,42.7-19.8,86.5-8.8,130.2c2.3,9.1,5.2,18,9.1,26.5
		c1.2,2.6,3.4,9.7,6.6,10.6c11.6,3.1,20.4,4,29.7,12.6c5.8,5.4,10.1,2.4,16.9-0.3c20.6-8.3,38.5-18.6,53.1-35.6
		C373.6,322.8,382.1,294.8,377.1,263.5 M355.3,302.6c-1.8,16-11.8,30.3-22.1,42.1c-7.4,8.6-17.4,19.7-28.4,23.7
		c-4,1.4,0.7-6.5,1.3-7.4c3.4-5.1,7.6-9.6,11.5-14.4c5.8-7,10.7-14.3,14.1-22.8c11.2-28.1,8.6-62.2-7.9-87.5
		c-9-13.8-21.4-25.5-33.9-36.1c-6-5.1-12.1-10-17.2-16.1c-1.2-1.4-11.5-15-8.3-17c1-0.6,23.7,23.2,26.1,25
		c9.4,7.1,19,13.6,27.7,21.6c11.7,10.8,23.8,22.8,30.5,37.5C356.1,267.1,357.3,285.2,355.3,302.6"/>
	<path id="XMLID_7_" class="st1" d="M243.3,72.4c3.4,2.3,4.2,15.5,4.2,27.6c0,12.1,1.1,64.2-2.6,78.1c-3.8,14-12.5,29.4-21.9,43
		c-9.4,13.6-20.4,42.3-20,60c0.4,17.7,10.6,46.8,18.5,58.9c8,12.1,21.5,29,18.5,32.8c-5.3,6.8-26.8-16.6-38.1-30.2
		c-11.3-13.6-22.7-41.2-23-62.7c-0.4-21.5,11.7-41.5,20.4-53.6c8.7-12.1,25.7-32.8,30.2-42.3c4.5-9.4,9.4-19.6,10.9-32.8
		c1.5-13.2,0-60.4,0-60.4S239.9,70.2,243.3,72.4"/>
	<path id="XMLID_8_" class="st1" d="M234.2,94.7c3.4,1.5,3.8,5.7,3.8,9.8c0,4.2-1.1,21.1-2.3,37.8c-1.1,16.6-14.3,30.6-24.2,40.4
		c-9.8,9.8-38.1,40.4-48.7,55.5c-10.6,15.1-15.8,35-14.7,51.7c1.1,17,5.3,33.6,21.1,51.3c15.9,17.7,26.8,26,35.1,30.2
		c8.3,4.2,16.6,7.2,14.7,10.9c-1.9,3.8-9.8,1.1-18.5-1.9c-8.7-3-38.1-15.1-55.1-34.4c-17-19.3-25.7-44.9-24.9-69.5
		c0.8-24.5,7.6-34.7,18.9-50.6c11.3-15.9,42.7-39.3,52.5-45.3c9.8-6,23-16.2,29.4-24.5c6.4-8.3,9.8-15.1,9.4-26.4
		c-0.4-11.3,0.8-21.5,0.4-25.3C230.8,100.7,230.8,93.2,234.2,94.7"/>
	<path id="XMLID_9_" class="st1" d="M235.2,390.6c1.5-0.1,0.6,6.6-2.1,9.9c-2.7,3.3-7.4,5.3-7.9,4c-0.6-1.3,3.4-2.1,6.2-5.3
		C234,396.2,233.3,390.7,235.2,390.6"/>
	<path id="XMLID_10_" class="st1" d="M265.7,390.4c-1.5-0.1-0.6,6.6,2.1,9.9c2.7,3.3,7.4,5.3,7.9,4c0.6-1.3-3.4-2.1-6.2-5.3
		C266.9,396,267.6,390.5,265.7,390.4"/>
	<path id="XMLID_11_" class="st1" d="M252.1,397.7c0,5.8,0.3,10.5-1,10.5c-1.6,0-1-4.7-1-10.5c0-5.8-0.5-10.5,1-10.5
		C252.5,387.1,252.1,391.9,252.1,397.7"/>
</g>
</svg>
