<?xml version="1.0" encoding="utf-8"?>
<!-- Generator: Adobe Illustrator 19.0.0, SVG Export Plug-In . SVG Version: 6.00 Build 0)  -->
<svg version="1.1" id="Layer_1" xmlns="http://www.w3.org/2000/svg" xmlns:xlink="http://www.w3.org/1999/xlink" x="0px" y="0px"
	 viewBox="0 0 500 500" style="enable-background:new 0 0 500 500;" xml:space="preserve">
<g id="XMLID_1_">
	<path id="XMLID_2_" d="M430,245.5l-15.3-9.5c-0.1-1.5-0.3-3-0.4-4.5l13.2-12.3c1.3-1.2,1.9-3.1,1.6-4.9c-0.4-1.8-1.6-3.3-3.3-3.9
		l-16.8-6.3c-0.4-1.5-0.9-2.9-1.3-4.3l10.5-14.6c1.1-1.5,1.3-3.4,0.6-5.1c-0.7-1.7-2.2-2.9-4-3.2l-17.8-2.9c-0.7-1.3-1.4-2.7-2.1-4
		l7.5-16.4c0.8-1.7,0.6-3.6-0.4-5.1c-1-1.5-2.7-2.4-4.6-2.3l-18,0.6c-0.9-1.2-1.9-2.3-2.8-3.5l4.1-17.5c0.4-1.8-0.1-3.6-1.4-4.9
		c-1.3-1.3-3.2-1.8-4.9-1.4l-17.5,4.1c-1.1-1-2.3-1.9-3.5-2.8l0.6-18c0.1-1.8-0.8-3.6-2.3-4.6c-1.5-1-3.5-1.2-5.1-0.4l-16.4,7.5
		c-1.3-0.7-2.6-1.4-4-2.1L323,85.4c-0.3-1.8-1.5-3.3-3.2-4c-1.7-0.7-3.6-0.5-5.1,0.6l-14.6,10.5c-1.4-0.5-2.9-0.9-4.3-1.3l-6.3-16.8
		c-0.6-1.7-2.1-3-3.9-3.3c-1.8-0.4-3.6,0.2-4.9,1.6l-12.3,13.2c-1.5-0.2-3-0.3-4.5-0.4L254.5,70c-1-1.6-2.7-2.5-4.5-2.5
		c-1.8,0-3.5,0.9-4.5,2.5L236,85.3c-1.5,0.1-3,0.3-4.5,0.4l-12.3-13.2c-1.2-1.3-3.1-1.9-4.9-1.6c-1.8,0.4-3.3,1.6-3.9,3.3l-6.3,16.8
		c-1.5,0.4-2.9,0.9-4.3,1.3L185.3,82c-1.5-1.1-3.4-1.3-5.1-0.6c-1.7,0.7-2.9,2.2-3.2,4l-2.9,17.8c-1.3,0.7-2.7,1.4-4,2.1l-16.4-7.5
		c-1.7-0.8-3.6-0.6-5.1,0.4c-1.5,1-2.4,2.7-2.3,4.6l0.6,18c-1.2,0.9-2.3,1.9-3.5,2.8l-17.5-4.1c-1.8-0.4-3.7,0.1-4.9,1.4
		c-1.3,1.3-1.8,3.2-1.4,4.9l4.1,17.5c-1,1.1-1.9,2.3-2.8,3.5l-18-0.6c-1.8-0.1-3.6,0.8-4.6,2.3c-1,1.5-1.2,3.5-0.4,5.1l7.5,16.4
		c-0.7,1.3-1.4,2.6-2.1,4L85.4,177c-1.8,0.3-3.3,1.5-4,3.2c-0.7,1.7-0.5,3.6,0.6,5.1l10.5,14.6c-0.5,1.4-0.9,2.9-1.3,4.3l-16.8,6.3
		c-1.7,0.6-3,2.1-3.3,3.9c-0.4,1.8,0.2,3.6,1.6,4.9l13.2,12.3c-0.2,1.5-0.3,3-0.4,4.5L70,245.5c-1.6,1-2.5,2.7-2.5,4.5
		c0,1.8,0.9,3.5,2.5,4.5l15.3,9.5c0.1,1.5,0.3,3,0.4,4.5l-13.2,12.3c-1.3,1.2-1.9,3.1-1.6,4.9c0.4,1.8,1.6,3.3,3.3,3.9l16.8,6.3
		c0.4,1.5,0.9,2.9,1.3,4.3L82,314.7c-1.1,1.5-1.3,3.4-0.6,5.1c0.7,1.7,2.2,2.9,4,3.2l17.7,2.9c0.7,1.3,1.4,2.7,2.1,4l-7.5,16.4
		c-0.8,1.7-0.6,3.6,0.4,5.1c1,1.5,2.8,2.4,4.6,2.3l18-0.6c0.9,1.2,1.9,2.3,2.8,3.5l-4.1,17.6c-0.4,1.8,0.1,3.6,1.4,4.9
		c1.3,1.3,3.2,1.8,4.9,1.4l17.5-4.1c1.1,1,2.3,1.9,3.5,2.8l-0.6,18c-0.1,1.8,0.8,3.6,2.3,4.6c1.5,1,3.5,1.2,5.1,0.4l16.4-7.5
		c1.3,0.7,2.6,1.4,4,2.1l2.9,17.7c0.3,1.8,1.5,3.3,3.2,4c1.7,0.7,3.6,0.5,5.1-0.6l14.6-10.5c1.4,0.5,2.9,0.9,4.3,1.3l6.3,16.8
		c0.6,1.7,2.1,3,3.9,3.3c1.8,0.4,3.6-0.2,4.9-1.6l12.3-13.2c1.5,0.2,3,0.3,4.5,0.4l9.5,15.3c1,1.5,2.7,2.5,4.5,2.5
		c1.8,0,3.5-0.9,4.5-2.5l9.5-15.3c1.5-0.1,3-0.3,4.5-0.4l12.3,13.2c1.2,1.3,3.1,1.9,4.9,1.6c1.8-0.4,3.3-1.6,3.9-3.3l6.3-16.8
		c1.5-0.4,2.9-0.9,4.3-1.3l14.6,10.5c1.5,1.1,3.4,1.3,5.1,0.6c1.7-0.7,2.9-2.2,3.2-4l2.9-17.7c1.3-0.7,2.7-1.4,4-2.1l16.4,7.5
		c1.7,0.8,3.6,0.6,5.1-0.4c1.5-1,2.4-2.7,2.3-4.6l-0.6-18c1.2-0.9,2.3-1.9,3.5-2.8l17.5,4.1c1.8,0.4,3.7-0.1,4.9-1.4
		c1.3-1.3,1.8-3.2,1.4-4.9l-4.1-17.6c1-1.1,1.9-2.3,2.8-3.5l18,0.6c1.8,0.1,3.6-0.8,4.6-2.3c1-1.5,1.2-3.5,0.4-5.1l-7.5-16.4
		c0.7-1.3,1.4-2.6,2.1-4l17.8-2.9c1.8-0.3,3.3-1.5,4-3.2c0.7-1.7,0.5-3.6-0.6-5.1l-10.5-14.6c0.5-1.4,0.9-2.9,1.3-4.3l16.8-6.3
		c1.7-0.6,3-2.1,3.3-3.9c0.4-1.8-0.2-3.6-1.6-4.9l-13.2-12.3c0.2-1.5,0.3-3,0.4-4.5l15.3-9.5c1.6-1,2.5-2.7,2.5-4.5
		C432.5,248.2,431.6,246.5,430,245.5z M327.4,372.6c-5.9-1.3-9.6-7-8.3-12.9c1.3-5.9,7-9.6,12.9-8.3c5.9,1.3,9.6,7,8.3,12.9
		C339.1,370.2,333.3,373.9,327.4,372.6z M322.2,337.4c-5.3-1.1-10.6,2.3-11.7,7.6l-5.4,25.4c-16.8,7.6-35.4,11.9-55.1,11.9
		c-20.1,0-39.1-4.4-56.2-12.4l-5.4-25.4c-1.1-5.3-6.4-8.7-11.7-7.6l-22.4,4.8c-4.2-4.3-8-8.8-11.6-13.7h109.1c1.2,0,2.1-0.2,2.1-1.3
		v-38.6c0-1.1-0.8-1.3-2.1-1.3h-31.9v-24.5h34.5c3.1,0,16.8,0.9,21.2,18.4c1.4,5.4,4.4,22.9,6.4,28.5c2.1,6.3,10.4,18.8,19.3,18.8
		h54.3c0.6,0,1.3-0.1,2-0.2c-3.8,5.1-7.9,10-12.4,14.5L322.2,337.4z M171.4,372.1c-5.9,1.3-11.6-2.5-12.9-8.3
		c-1.3-5.9,2.5-11.6,8.3-12.9c5.9-1.3,11.6,2.5,12.9,8.3C181,365.1,177.3,370.9,171.4,372.1z M130,204.4c2.4,5.5,0,11.9-5.5,14.3
		c-5.5,2.4-11.9,0-14.3-5.5c-2.4-5.5,0-11.9,5.5-14.3C121.2,196.4,127.6,198.9,130,204.4z M117.3,234.5l23.3-10.4
		c5-2.2,7.2-8.1,5-13.1l-4.8-10.9h18.9v85.2h-38.2c-3.3-11.6-5.1-23.9-5.1-36.6C116.6,244,116.8,239.2,117.3,234.5z M219.8,226.2
		v-25.1h45c2.3,0,16.4,2.7,16.4,13.2c0,8.8-10.8,11.9-19.7,11.9L219.8,226.2L219.8,226.2z M383.4,248.8c0,3.3-0.1,6.6-0.4,9.9h-13.7
		c-1.4,0-1.9,0.9-1.9,2.2v6.3c0,14.8-8.3,18-15.7,18.8c-7,0.8-14.7-2.9-15.6-7.2c-4.1-23.1-11-28-21.8-36.6
		c13.4-8.5,27.4-21.1,27.4-37.9c0-18.2-12.5-29.6-20.9-35.2c-11.9-7.9-25.1-9.4-28.7-9.4H150.6c19.2-21.4,45.2-36.6,74.7-42.1
		l16.7,17.5c3.8,4,10,4.1,14,0.3l18.7-17.9c39.1,7.3,72.3,31.6,91.4,65.1l-12.8,28.9c-2.2,5,0,10.8,5,13.1l24.6,10.9
		C383.2,239.9,383.4,244.4,383.4,248.8z M241.9,102.8c4.3-4.1,11.2-4,15.3,0.4c4.1,4.3,4,11.2-0.4,15.3c-4.3,4.1-11.2,4-15.3-0.4
		C237.5,113.8,237.6,106.9,241.9,102.8z M368.8,204.9c2.4-5.5,8.8-8,14.3-5.5c5.5,2.4,7.9,8.8,5.5,14.3c-2.4,5.5-8.8,8-14.3,5.5
		C368.9,216.8,366.4,210.4,368.8,204.9z"/>
</g>
</svg>
